<?xml version="1.0" encoding="UTF-8"?>
<svg width="180px" height="180px" viewBox="0 0 180 180" version="1.1" xmlns="http://www.w3.org/2000/svg" xmlns:xlink="http://www.w3.org/1999/xlink">
    <title>Group 6</title>
    <g id="Page-1" stroke="none" stroke-width="1" fill="none" fill-rule="evenodd">
        <g id="Group-6">
            <path d="M90,180 L90,180 C40.294,180 0,139.706 0,90 L0,90 C0,40.294 40.294,0 90,0 L90,0 C139.706,0 180,40.294 180,90 L180,90 C180,139.706 139.706,180 90,180" id="Fill-1" fill="#1D1E1F"></path>
            <path d="M56.6247,87.2247 L89.9957,106.4977 L123.3747,87.2247 L123.3747,109.2737 L89.9957,128.5387 L56.6247,109.2737 L56.6247,87.2247 Z M121.3347,69.5517 L89.9957,87.6407 L58.6657,69.5517 L89.9957,51.4617 L121.3347,69.5517 Z M135.6197,116.3427 L89.9957,142.6777 L44.3797,116.3427 L44.3797,63.6577 L89.9957,37.3227 L133.5787,62.4817 L125.4157,67.1917 L89.9957,46.7437 L54.5837,67.1917 L52.5427,68.3757 L52.5427,111.6247 L89.9957,133.2567 L123.3747,113.9837 L127.4567,111.6247 L127.4567,80.1557 L89.9957,101.7797 L56.6247,82.5147 L56.6247,73.0857 L89.9957,92.3597 L125.4157,71.9107 L135.6197,66.0167 L135.6197,116.3427 Z M89.9957,32.6047 L40.2987,61.3067 L40.2987,118.6937 L89.9957,147.3957 L139.7017,118.6937 L139.7017,61.3067 L137.6607,60.1227 L89.9957,32.6047 Z" id="Fill-4" fill="#FEFEFE"></path>
        </g>
    </g>
</svg>